<?xml version="1.0" encoding="utf-8"?>
<svg xmlns="http://www.w3.org/2000/svg" viewBox="0.8942 5.952 30 20.0299" width="32px" height="32px">
  <g transform="matrix(0.14181700348854065, 0, 0, 0.14181700348854065, -6.698678016662598, -1.7699229717254639)" style="">
    <path class="background" d="M261.57,134.34c-12.79-49.22-57.29-79.8-102.04-79.8s-90.92,31.31-103.09,82.72c-1.7,7.18-2.55,15.17-2.55,22.83,0,6.8.69,12.52,1.92,18.96h0c.94-.2,1.32-.29,2.37-.5,0,0,0,0,0,0,9.57-1.64,24.73-3.62,37.68-1.99,20.57,2.6,33.43,6.07,55.15,10.98,21.72,4.91,37.72,9.53,61.16,6.93,20.52-2.27,34.56-5.47,48.24-14.47,0,0,0,0,0,0,.01,0,1.1-.71,1.1-.71.24-.17,1.17-.86,1.46-1.08,1-5.86,1.76-11.7,1.76-17.85h0c0-8.62-1.21-17.97-3.15-25.99" style="fill: rgb(255, 255, 255); stroke-width: 0px;"/>
    <path class="mountains" d="M56.05,137.81c-.89,4.19-2.51,12.08-2.51,22.63,0,6.82.7,12.56,1.93,19.02h0c.94-.2,1.33-.29,2.37-.5,0,0,0,0,0,0,9.61-1.65,24.82-3.63,37.81-1.99,20.64,2.61,33.54,6.09,55.34,11.01,21.79,4.93,37.85,9.56,61.36,6.96,20.59-2.28,34.68-5.49,48.4-14.52,0,0,0,0,0,0,.01,0,1.1-.71,1.1-.71.24-.17,1.17-.87,1.47-1.08,1.01-5.88,1.76-11.74,1.76-17.91h0c0-8.28-1.12-17.22-2.91-25.03l-14.57-8.12-16.85,11.82-11.33-4.42c-3.84,1.95-27.51,17.77-27.51,17.77l-9.09-6.58-9.75-1.93-13-9.47-14.91,10.24s-16.63,9.66-17.2,9.66-20.07-15.46-20.07-15.46l-8.98-9.47c-1.53.97-7.64,3.77-7.64,3.77l-.31.09-5.91-1.83-7.18-3.81-21.81,9.89Z" style="fill: rgb(35, 64, 117); stroke-width: 0px;"/>
    <path class="sun" d="M 230.69 137.53 L 245.33 127.31 L 223.93 135.23 L 230.69 137.54 L 230.69 137.53 Z M 159.17 54.45 C 108.7 54.45 66.52 89.9 56.15 137.25 C 56.15 137.25 56.08 137.58 56.03 137.84 L 58.1 136.87 L 74.66 127.59 L 62.65 123.16 C 62.79 122.79 62.92 122.42 63.07 122.06 L 76.28 126.68 L 77.55 125.89 L 83.86 129.32 L 91.7 132.18 L 92.17 131.97 L 64.18 119.38 C 64.34 119.01 64.5 118.64 64.67 118.28 L 95.5 130.59 L 95.94 130.36 L 65.89 115.61 C 66.06 115.26 66.23 114.91 66.4 114.56 L 99.04 128.8 L 67.74 111.93 C 67.91 111.61 68.08 111.29 68.25 110.97 L 112.21 134.24 C 112.84 133.07 113.51 131.92 114.22 130.81 L 78.4 102.82 L 116.63 127.35 C 117.57 126.1 118.57 124.9 119.62 123.74 L 82.84 90.41 C 83.1 90.12 83.38 89.83 83.64 89.54 L 110.36 113.16 L 85.65 87.44 C 85.93 87.15 86.21 86.87 86.5 86.59 L 114.38 113.35 L 88.62 84.56 C 88.9 84.3 89.19 84.03 89.48 83.77 L 114.45 109.23 L 91.69 81.8 C 91.97 81.56 92.24 81.33 92.52 81.1 L 124.47 119.02 C 125.7 117.96 126.98 116.94 128.31 115.99 L 105.52 76.53 L 131.83 113.67 C 133.26 112.81 134.73 112.02 136.23 111.3 L 114.68 66.75 C 115.06 66.57 115.43 66.4 115.8 66.23 L 131.76 98.19 L 118.46 65.04 C 118.83 64.88 119.19 64.72 119.57 64.57 L 135.41 99.87 L 122.29 63.48 C 122.65 63.34 123.02 63.2 123.37 63.07 L 137 96.07 L 126.16 62.09 C 126.48 61.98 126.8 61.89 127.12 61.78 L 142.48 108.76 C 143.91 108.28 145.36 107.86 146.84 107.5 L 140.5 62.38 L 150.98 106.67 C 152.72 106.39 154.5 106.2 156.29 106.1 L 153.01 56.89 C 153.38 56.87 153.75 56.85 154.13 56.82 L 157.52 92.2 L 157.02 56.72 C 157.43 56.72 157.83 56.71 158.24 56.7 L 159.69 93.95 L 161.15 56.71 C 161.54 56.72 161.94 56.73 162.33 56.74 L 162.01 92.19 L 165.26 56.87 C 165.63 56.89 165.99 56.91 166.36 56.94 L 163.02 106.11 C 164.73 106.22 166.41 106.4 168.07 106.67 L 178.53 62.52 L 172.2 107.5 C 173.75 107.88 175.27 108.32 176.77 108.83 L 192.08 62.04 C 192.44 62.16 192.8 62.29 193.16 62.42 L 182.43 96.07 L 195.91 63.42 C 196.28 63.56 196.65 63.69 197.02 63.84 L 184.03 99.87 L 199.7 64.95 C 200.08 65.11 200.45 65.27 200.82 65.44 L 187.68 98.19 L 203.44 66.64 C 203.78 66.8 204.11 66.96 204.45 67.12 L 183.03 111.4 C 184.49 112.11 185.91 112.88 187.29 113.71 L 213.53 76.68 L 190.8 116.03 C 192.17 117.01 193.47 118.05 194.73 119.15 L 226.4 81.56 C 226.69 81.81 226.98 82.06 227.27 82.31 L 204.75 109.45 L 229.44 84.27 C 229.73 84.54 230.03 84.81 230.32 85.08 L 204.81 113.58 L 232.39 87.11 C 232.68 87.4 232.96 87.69 233.24 87.98 L 208.83 113.39 L 235.22 90.07 C 235.47 90.34 235.72 90.61 235.96 90.88 L 199.54 123.88 C 200.57 125.03 201.56 126.22 202.49 127.46 L 240.64 102.98 L 204.88 130.91 C 205.6 132.03 206.26 133.18 206.89 134.36 L 250.33 111.37 C 250.51 111.71 250.69 112.05 250.87 112.39 L 220.1 128.97 L 252.17 114.99 C 252.34 115.35 252.51 115.71 252.68 116.07 L 218.61 132.82 L 253.87 118.69 C 254.04 119.07 254.21 119.44 254.36 119.82 L 222.4 134.14 L 255.43 122.46 C 255.56 122.8 255.69 123.14 255.82 123.49 L 248.75 126.09 L 259.24 134.07 L 262.15 135.69 C 262.15 135.69 262.15 135.69 262.15 135.69 C 261.04 131.26 259.36 125.84 257.71 121.65 C 241.96 81.71 202.24 54.49 159.17 54.49 L 159.17 54.45 Z" style="fill: rgb(227, 168, 43); stroke-width: 0px;"/>
  </g>
</svg>